<?xml version="1.0" encoding="utf-8"?>
<!-- Generator: Adobe Illustrator 16.0.0, SVG Export Plug-In . SVG Version: 6.00 Build 0)  -->
<!DOCTYPE svg PUBLIC "-//W3C//DTD SVG 1.1//EN" "http://www.w3.org/Graphics/SVG/1.1/DTD/svg11.dtd">
<svg version="1.1" xmlns="http://www.w3.org/2000/svg" xmlns:xlink="http://www.w3.org/1999/xlink" x="0px" y="0px"
	 width="1221.859px" height="588.933px" viewBox="0 0 1221.859 588.933" enable-background="new 0 0 1221.859 588.933"
	 xml:space="preserve">
<g id="dark_bg" display="none">
	<rect x="1.078" display="inline" fill="#222222" width="1220.781" height="588.933"/>
</g>
<g id="white_bg_copy" display="none">
	<rect x="1.078" display="inline" fill="#FFFFFF" width="1220.781" height="588.933"/>
</g>
<g id="graybg" display="none">
	<rect x="1.078" display="inline" fill="#EDEDED" width="1220.781" height="588.933"/>
</g>
<g id="frames" display="none">
	<line display="inline" fill="none" stroke="#FFFFFF" stroke-miterlimit="10" x1="1.85" y1="235.933" x2="1222.938" y2="235.933"/>
	<line display="inline" fill="none" stroke="#FFFFFF" stroke-miterlimit="10" x1="1.85" y1="352.933" x2="1221.835" y2="352.933"/>
	<line display="inline" fill="none" stroke="#FFFFFF" stroke-miterlimit="10" x1="111.078" y1="0" x2="111.078" y2="582.197"/>
	<line display="inline" fill="none" stroke="#FFFFFF" stroke-miterlimit="10" x1="1.85" y1="470.933" x2="1222.938" y2="470.933"/>
	<line display="inline" fill="none" stroke="#FFFFFF" stroke-miterlimit="10" x1="0.061" y1="118.933" x2="1222.938" y2="118.933"/>
	
		<line display="inline" fill="none" stroke="#FFFFFF" stroke-miterlimit="10" x1="-2.722" y1="588.933" x2="1222.938" y2="588.933"/>
	<line display="inline" fill="none" stroke="#FFFFFF" stroke-miterlimit="10" x1="0" y1="0" x2="0" y2="582.197"/>
	<line display="inline" fill="none" stroke="#FFFFFF" stroke-miterlimit="10" x1="222.156" y1="-0.929" x2="222.156" y2="588.197"/>
	<line display="inline" fill="none" stroke="#FFFFFF" stroke-miterlimit="10" x1="333.234" y1="-1" x2="333.234" y2="588.126"/>
	<line display="inline" fill="none" stroke="#FFFFFF" stroke-miterlimit="10" x1="444.313" y1="0" x2="444.313" y2="589.126"/>
	<line display="inline" fill="none" stroke="#FFFFFF" stroke-miterlimit="10" x1="555.391" y1="0" x2="555.391" y2="589.126"/>
	<line display="inline" fill="none" stroke="#FFFFFF" stroke-miterlimit="10" x1="666.469" y1="0" x2="666.469" y2="589.126"/>
	<line display="inline" fill="none" stroke="#FFFFFF" stroke-miterlimit="10" x1="777.547" y1="0" x2="777.547" y2="589.126"/>
	<line display="inline" fill="none" stroke="#FFFFFF" stroke-miterlimit="10" x1="888.625" y1="3" x2="888.625" y2="592.126"/>
	<line display="inline" fill="none" stroke="#FFFFFF" stroke-miterlimit="10" x1="999.703" y1="3" x2="999.703" y2="592.126"/>
	<line display="inline" fill="none" stroke="#FFFFFF" stroke-miterlimit="10" x1="1110.781" y1="3" x2="1110.781" y2="592.126"/>
	<line display="inline" fill="none" stroke="#FFFFFF" stroke-miterlimit="10" x1="1110.781" y1="0" x2="1110.781" y2="589.126"/>
</g>
<g id="frames_lbg" display="none">
	<line display="inline" fill="none" stroke="#212121" stroke-miterlimit="10" x1="1.85" y1="235.933" x2="1222.938" y2="235.933"/>
	<line display="inline" fill="none" stroke="#212121" stroke-miterlimit="10" x1="1.85" y1="352.933" x2="1221.835" y2="352.933"/>
	<line display="inline" fill="none" stroke="#212121" stroke-miterlimit="10" x1="111.078" y1="0" x2="111.078" y2="582.197"/>
	<line display="inline" fill="none" stroke="#212121" stroke-miterlimit="10" x1="1.85" y1="470.933" x2="1222.938" y2="470.933"/>
	<line display="inline" fill="none" stroke="#212121" stroke-miterlimit="10" x1="0.061" y1="118.933" x2="1222.938" y2="118.933"/>
	
		<line display="inline" fill="none" stroke="#212121" stroke-miterlimit="10" x1="-2.722" y1="588.933" x2="1222.938" y2="588.933"/>
	<line display="inline" fill="none" stroke="#212121" stroke-miterlimit="10" x1="0" y1="0" x2="0" y2="582.197"/>
	<line display="inline" fill="none" stroke="#212121" stroke-miterlimit="10" x1="222.156" y1="-0.929" x2="222.156" y2="588.197"/>
	<line display="inline" fill="none" stroke="#212121" stroke-miterlimit="10" x1="333.234" y1="-1" x2="333.234" y2="588.126"/>
	<line display="inline" fill="none" stroke="#212121" stroke-miterlimit="10" x1="444.313" y1="0" x2="444.313" y2="589.126"/>
	<line display="inline" fill="none" stroke="#212121" stroke-miterlimit="10" x1="555.391" y1="0" x2="555.391" y2="589.126"/>
	<line display="inline" fill="none" stroke="#212121" stroke-miterlimit="10" x1="666.469" y1="0" x2="666.469" y2="589.126"/>
	<line display="inline" fill="none" stroke="#212121" stroke-miterlimit="10" x1="777.547" y1="0" x2="777.547" y2="589.126"/>
	<line display="inline" fill="none" stroke="#212121" stroke-miterlimit="10" x1="888.625" y1="3" x2="888.625" y2="592.126"/>
	<line display="inline" fill="none" stroke="#212121" stroke-miterlimit="10" x1="999.703" y1="3" x2="999.703" y2="592.126"/>
	<line display="inline" fill="none" stroke="#212121" stroke-miterlimit="10" x1="1110.781" y1="3" x2="1110.781" y2="592.126"/>
	<line display="inline" fill="none" stroke="#212121" stroke-miterlimit="10" x1="1110.781" y1="0" x2="1110.781" y2="589.126"/>
</g>
<g id="logo">
	<path fill="#F2A615" d="M209.886,488.989c0,0,18.004-33.401,22.604-65.238c27.852-7.72,52.427-14.216,55.841-15.063
		c7.61,30.107,56.737,58.108,89.235,33.384c8.942-6.805,21.16-39.078-20.085-51.834c-29.866-9.234-66.454-0.596-124.691,15.871
		c-1.916-14.128-0.376-14.446-4.439-36.788c22.8-5.784,42.34-9.617,65.342-16.388c38.516,5.957,110.955-19.442,110.579-65.326
		c-1.431-14.293-11.184-28.92-36.761-27.432c-28.585,2.682-49.976,15.671-65.773,42.482c-5.28,8.963-8.935,30.316-8.935,30.316
		s-30.95,8.265-69.167,18.69c-1.689,0.461,17.921-90.115,132.267-111.266c26.403-4.768,59.161-3.32,72.257,24.294
		c12.598,26.57,1.765,50.178-13.581,64.477c-15.435,14.378-47.393,34.47-90.947,39.023c50.024-2.331,70.329,14.215,80.565,29.419
		c10.08,14.971,16.805,59.672-24.824,70.824c-58.376,15.64-112.915-21.225-112.915-21.225S237.345,486.311,209.886,488.989z"/>
	<path fill="#F2A615" d="M256.52,177.513c-5.718-75.665-83.961-62.246-101.114-57.479c79.14-2.978,85.164,52.713,86.068,58.968
		c-6.02,2.383-6.92,2.979-12.94,7.744c-39.117-62.258-97.492-16.979-113.741-3.574c74.624-35.748,101.405,11.322,105.618,14.896
		c-34.002,34.854-18.656,92.944-18.656,92.944h7.22c52.277-6.146,66.613-23.849,73.723-30.387
		c3.103-2.853,11.434-13.108,11.735-18.767C304.663,183.767,262.537,178.406,256.52,177.513z M234.955,256.248
		c-10.889,5.793-16.418,5.442-16.418,5.442s-4.069-40.631,19.635-33.736C243.08,229.382,260.259,242.783,234.955,256.248z"/>
	
		<text transform="matrix(1 0 0 1 434.2568 468.2729)" fill="#EDEDED" stroke="#FFFFFF" stroke-miterlimit="10" font-family="'ArialRoundedMTBold'" font-size="160" letter-spacing="8">izzybee</text>
</g>
<g id="Layer_12" display="none">
</g>
<g id="circles" display="none">
	<circle display="inline" fill="none" stroke="#FFFFFF" stroke-miterlimit="10" cx="222.886" cy="352.933" r="13"/>
	<circle display="inline" fill="none" stroke="#FFFFFF" stroke-miterlimit="10" cx="292.579" cy="352.933" r="13"/>
	<circle display="inline" fill="none" stroke="#FFFFFF" stroke-miterlimit="10" cx="444.313" cy="468.273" r="13"/>
	<circle display="inline" fill="none" stroke="#FFFFFF" stroke-miterlimit="10" cx="111.078" cy="182.666" r="13"/>
</g>
<g id="don_x27_t" display="none">
	<path fill="#F2A615" stroke="#FFFFFF" stroke-miterlimit="10" d="M96.331,429.689c0,0,14.666-27.206,18.413-53.139
		c22.687-6.288,42.704-11.579,45.485-12.269c6.198,24.522,46.214,47.33,72.686,27.191c7.284-5.543,17.236-31.831-16.36-42.22
		c-24.326-7.522-54.129-0.485-101.566,12.927c-1.56-11.507-0.307-11.768-3.615-29.966c18.571-4.711,38.462-9.838,56.092-14.034
		c31.372,4.852,87.509-15.15,87.202-52.525c-1.166-11.642-9.109-23.556-29.943-22.344c-23.283,2.185-40.708,12.765-53.575,34.604
		c-4.301,7.3-7.278,24.693-7.278,24.693s-25.21,6.731-56.339,15.224c-1.376,0.377,14.598-73.401,107.737-90.63
		c21.506-3.884,48.189-2.705,58.856,19.788c10.262,21.643,1.438,40.873-11.063,52.52c-12.571,11.711-38.603,28.077-74.08,31.785
		c40.748-1.898,57.286,11.579,65.624,23.965c8.21,12.192,13.688,48.604-20.22,57.688c-47.55,12.738-91.973-17.288-91.973-17.288
		S118.697,427.508,96.331,429.689z"/>
	<path fill="#F2A615" stroke="#FFFFFF" stroke-miterlimit="10" d="M130.243,178.423c-4.657-61.632-68.39-50.702-82.361-46.82
		c64.463-2.425,69.37,42.937,70.106,48.032c-4.904,1.941-5.637,2.427-10.541,6.308c-31.862-50.712-79.411-13.829-92.647-2.91
		c60.785-29.119,82.599,9.223,86.03,12.132c-27.696,28.39-15.196,75.707-15.196,75.707h5.881
		c42.583-5.006,54.259-19.425,60.051-24.751c2.527-2.324,9.313-10.678,9.558-15.285C169.458,183.517,135.145,179.15,130.243,178.423
		z M112.678,242.556c-8.869,4.718-13.373,4.432-13.373,4.432s-3.315-33.096,15.993-27.479
		C119.296,220.671,133.289,231.587,112.678,242.556z"/>
	
		<text transform="matrix(1.0101 0 0 1 280.7212 298.3794)" fill="#212121" stroke="#FFFFFF" stroke-miterlimit="10" font-family="'ArialRoundedMTBold'" font-size="128.6977" letter-spacing="5.94">izzy</text>
	<line fill="none" stroke="#353535" stroke-width="3" stroke-miterlimit="10" x1="88.612" y1="436.625" x2="569.318" y2="180.057"/>
	<path fill="#F2A615" stroke="#FFFFFF" stroke-miterlimit="10" d="M704.799,445.597c0,0,14.666-27.206,18.413-53.139
		c22.687-6.288,42.704-11.579,45.485-12.269c6.197,24.522,46.213,47.33,72.686,27.191c7.283-5.543,17.235-31.831-16.361-42.22
		c-24.326-7.522-54.129-0.485-101.565,12.927c-1.56-11.507-0.307-11.768-3.615-29.966c18.571-4.711,38.462-9.838,56.092-14.034
		c31.372,4.852,87.509-15.15,87.202-52.525c-1.166-11.642-9.109-23.556-29.943-22.344c-23.283,2.185-40.707,12.765-53.575,34.604
		c-4.301,7.3-7.278,24.693-7.278,24.693s-25.21,6.731-56.34,15.224c-1.375,0.377,14.599-73.401,107.737-90.63
		c21.507-3.884,48.188-2.705,58.856,19.788c10.262,21.643,1.438,40.873-11.063,52.52c-12.572,11.711-38.604,28.077-74.08,31.785
		c40.747-1.898,57.285,11.579,65.623,23.965c8.211,12.192,13.688,48.604-20.22,57.688c-47.55,12.738-91.974-17.288-91.974-17.288
		S727.166,443.417,704.799,445.597z"/>
	<path fill="#F2A615" stroke="#FFFFFF" stroke-miterlimit="10" d="M738.712,194.332c-4.657-61.632-68.39-50.702-82.361-46.82
		c64.463-2.425,69.37,42.937,70.106,48.032c-4.904,1.941-5.637,2.427-10.541,6.308c-31.861-50.712-79.41-13.829-92.646-2.91
		c60.785-29.119,82.599,9.223,86.03,12.132c-27.696,28.39-15.196,75.707-15.196,75.707h5.881
		c42.582-5.006,54.26-19.425,60.051-24.751c2.527-2.324,9.313-10.678,9.559-15.285C777.926,199.425,743.613,195.058,738.712,194.332
		z M721.146,258.464c-8.869,4.718-13.373,4.432-13.373,4.432s-3.314-33.096,15.993-27.479
		C727.765,236.58,741.758,247.496,721.146,258.464z"/>
	
		<text transform="matrix(1.0101 0 0 1 889.1895 314.2876)" fill="#212121" stroke="#FFFFFF" stroke-miterlimit="10" font-family="'ArialRoundedMTBold'" font-size="128.6977" letter-spacing="5.94">izzy</text>
	
		<line fill="none" stroke="#353535" stroke-width="3" stroke-miterlimit="10" x1="697.081" y1="452.533" x2="1177.787" y2="195.965"/>
	<g id="Layer_8">
		
			<text transform="matrix(1.0101 0 0 1 280.7202 409.9546)" display="inline" fill="#212121" stroke="#FFFFFF" stroke-miterlimit="10" font-family="'ArialRoundedMTBold'" font-size="128.6977" letter-spacing="5.94">bee</text>
		
			<text transform="matrix(1.0101 0 0 1 889.1895 425.8628)" display="inline" fill="#212121" stroke="#FFFFFF" stroke-miterlimit="10" font-family="'ArialRoundedMTBold'" font-size="128.6977" letter-spacing="5.94">ee</text>
	</g>
	<g id="Layer_9">
		
			<text transform="matrix(1.0101 0 0 1 691.7695 251.189)" display="inline" fill="#212121" stroke="#FFFFFF" stroke-width="2" stroke-miterlimit="10" font-family="'ArialRoundedMTBold'" font-size="102.9371" letter-spacing="4.95">bee</text>
		<path display="inline" fill="#212121" stroke="#FFFFFF" stroke-width="2" stroke-miterlimit="10" d="M332.8,272.126
			c0,0,11.73-21.76,14.727-42.502c18.146-5.029,34.156-9.262,36.381-9.813c4.957,19.613,36.964,37.855,58.137,21.748
			c5.826-4.434,13.785-25.459-13.086-33.77c-19.457-6.016-43.295-0.387-81.236,10.34c-1.247-9.203-0.244-9.412-2.891-23.967
			c14.854-3.77,30.764-7.869,44.863-11.227c25.094,3.881,69.993-12.117,69.748-42.012c-0.932-9.311-7.286-18.84-23.949-17.871
			c-18.623,1.748-32.561,10.211-42.852,27.678c-3.44,5.84-5.822,19.752-5.822,19.752s-20.164,5.383-45.063,12.176
			c-1.1,0.301,11.677-58.709,86.172-72.488c17.202-3.107,38.544-2.164,47.076,15.826c8.207,17.311,1.149,32.691-8.849,42.008
			c-10.056,9.367-30.876,22.457-59.252,25.422c32.591-1.518,45.819,9.262,52.488,19.168c6.567,9.752,10.948,38.875-16.173,46.143
			c-38.032,10.188-73.563-13.828-73.563-13.828S350.689,270.382,332.8,272.126z"/>
		<path display="inline" fill="#212121" stroke="#FFFFFF" stroke-width="2" stroke-miterlimit="10" d="M359.925,71.155
			c-3.726-49.296-54.701-40.553-65.876-37.448c51.56-1.939,55.484,34.343,56.073,38.418c-3.922,1.553-4.508,1.941-8.43,5.045
			c-25.485-40.561-63.517-11.061-74.104-2.328c48.618-23.289,66.066,7.377,68.811,9.704c-22.152,22.707-12.154,60.554-12.154,60.554
			h4.703c34.06-4.004,43.398-15.537,48.031-19.797c2.021-1.859,7.449-8.541,7.646-12.227
			C391.29,75.23,363.845,71.737,359.925,71.155z M345.875,122.451c-7.094,3.773-10.696,3.545-10.696,3.545
			s-2.651-26.471,12.792-21.979C351.169,104.947,362.36,113.677,345.875,122.451z"/>
		
			<text transform="matrix(1.0101 0 0 1 480.2813 251.189)" display="inline" fill="#212121" stroke="#FFFFFF" stroke-width="2" stroke-miterlimit="10" font-family="'ArialRoundedMTBold'" font-size="102.9371" letter-spacing="4.95">izzy</text>
		
			<line display="inline" fill="none" stroke="#353535" stroke-width="3" stroke-miterlimit="10" x1="385.663" y1="293.067" x2="770.149" y2="87.855"/>
		
			<text transform="matrix(1.0101 0 0 1 672.5947 544.5269)" display="inline" fill="#F2A615" stroke="#FFFFFF" stroke-miterlimit="10" font-family="'ArialRoundedMTBold'" font-size="93.4685" letter-spacing="3.96">bee</text>
		<path display="inline" fill="#F2A615" stroke="#FFFFFF" stroke-miterlimit="10" d="M341.117,579.743
			c0,0,11.219-28.234,14.084-55.149c17.354-6.525,32.666-12.017,34.793-12.732c4.741,25.45,35.352,49.12,55.601,28.22
			c5.572-5.752,13.185-33.035-12.515-43.818c-18.608-7.807-41.406-0.501-77.691,13.418c-1.193-11.943-0.234-12.214-2.766-31.099
			c14.205-4.892,29.422-10.212,42.906-14.568c23.999,5.035,66.939-15.723,66.705-54.514c-0.892-12.081-6.969-24.446-22.904-23.188
			c-17.811,2.268-31.14,13.248-40.982,35.912c-3.291,7.578-5.568,25.631-5.568,25.631s-19.284,6.984-43.096,15.799
			c-1.052,0.391,11.168-76.18,82.411-94.06c16.452-4.032,36.862-2.809,45.022,20.536c7.849,22.462,1.1,42.419-8.462,54.508
			c-9.617,12.155-29.529,29.14-56.667,32.986c31.169-1.969,43.819,12.019,50.199,24.872c6.28,12.655,10.47,50.443-15.469,59.874
			c-36.372,13.219-70.354-17.943-70.354-17.943S358.227,577.481,341.117,579.743z"/>
		<path display="inline" fill="#F2A615" stroke="#FFFFFF" stroke-miterlimit="10" d="M357.855,346.432
			c-3.383-44.762-49.67-36.822-59.817-34.004c46.817-1.761,50.381,31.185,50.916,34.885c-3.561,1.41-4.093,1.763-7.654,4.581
			c-23.141-36.83-57.674-10.044-67.287-2.114c44.146-21.146,59.989,6.698,62.481,8.812c-20.115,20.618-11.036,54.983-11.036,54.983
			h4.271c30.926-3.636,39.407-14.107,43.613-17.976c1.836-1.688,6.765-7.756,6.942-11.102
			C386.335,350.132,361.414,346.96,357.855,346.432z M345.098,393.01c-6.441,3.426-9.712,3.219-9.712,3.219
			s-2.407-24.036,11.615-19.957C349.904,377.116,360.066,385.043,345.098,393.01z"/>
		
			<text transform="matrix(1.0101 0 0 1 480.5596 544.5269)" display="inline" fill="#F2A615" stroke="#FFFFFF" stroke-miterlimit="10" font-family="'ArialRoundedMTBold'" font-size="93.4685" letter-spacing="3.96">izzy</text>
		
			<line display="inline" fill="none" stroke="#353535" stroke-width="3" stroke-miterlimit="10" x1="394.645" y1="582.552" x2="743.764" y2="396.216"/>
	</g>
</g>
<g id="x" display="none">
	
		<line display="inline" fill="none" stroke="#FFFFFF" stroke-width="2" stroke-miterlimit="10" x1="939" y1="576.505" x2="939" y2="481.639"/>
	<polyline display="inline" fill="none" stroke="#FFFFFF" stroke-width="2" stroke-miterlimit="10" points="950.592,493.824 
		938.407,481.639 939.593,481.639 927.408,493.824 	"/>
	<polyline display="inline" fill="none" stroke="#FFFFFF" stroke-width="2" stroke-miterlimit="10" points="950.592,565.321 
		938.407,577.505 939.593,577.505 927.408,565.321 	"/>
	
		<text transform="matrix(1.0101 0 0 1 963.2295 541.5962)" display="inline" fill="#FFFFFF" font-family="'ArialRoundedMTBold'" font-size="36" letter-spacing="0.99">x</text>
	
		<line display="inline" fill="none" stroke="#FFFFFF" stroke-width="2" stroke-miterlimit="10" x1="674.4" y1="304.652" x2="769.267" y2="304.652"/>
	<polyline display="inline" fill="none" stroke="#FFFFFF" stroke-width="2" stroke-miterlimit="10" points="757.082,316.245 
		769.267,304.06 769.267,305.246 757.082,293.06 	"/>
	<polyline display="inline" fill="none" stroke="#FFFFFF" stroke-width="2" stroke-miterlimit="10" points="685.585,316.245 
		673.4,304.06 673.4,305.246 685.585,293.06 	"/>
	
		<text transform="matrix(-1.0101 0 0 -1 731.4453 262.5083)" display="inline" fill="#FFFFFF" font-family="'ArialRoundedMTBold'" font-size="36" letter-spacing="0.99">x</text>
	
		<line display="inline" fill="none" stroke="#FFFFFF" stroke-width="2" stroke-miterlimit="10" x1="7.85" y1="418.795" x2="102.716" y2="418.795"/>
	<polyline display="inline" fill="none" stroke="#FFFFFF" stroke-width="2" stroke-miterlimit="10" points="90.532,430.388 
		102.716,418.204 102.716,419.389 90.532,407.204 	"/>
	<polyline display="inline" fill="none" stroke="#FFFFFF" stroke-width="2" stroke-miterlimit="10" points="19.035,430.388 
		6.85,418.204 6.85,419.389 19.035,407.204 	"/>
	
		<text transform="matrix(-1.0101 0 0 -1 64.8945 376.6528)" display="inline" fill="#FFFFFF" font-family="'ArialRoundedMTBold'" font-size="36" letter-spacing="0.99">x</text>
	
		<line display="inline" fill="none" stroke="#FFFFFF" stroke-width="2" stroke-miterlimit="10" x1="486" y1="107.505" x2="486" y2="12.639"/>
	<polyline display="inline" fill="none" stroke="#FFFFFF" stroke-width="2" stroke-miterlimit="10" points="497.592,24.824 
		485.407,12.639 486.593,12.639 474.408,24.824 	"/>
	<polyline display="inline" fill="none" stroke="#FFFFFF" stroke-width="2" stroke-miterlimit="10" points="497.592,96.321 
		485.407,108.505 486.593,108.505 474.408,96.321 	"/>
	
		<text transform="matrix(1.0101 0 0 1 510.2295 72.5962)" display="inline" fill="#FFFFFF" font-family="'ArialRoundedMTBold'" font-size="36" letter-spacing="0.99">x</text>
</g>
</svg>
